<mxfile host="app.diagrams.net" agent="Mozilla/5.0 (Windows NT 10.0; Win64; x64) AppleWebKit/537.36 (KHTML, like Gecko) Chrome/138.0.0.0 YaBrowser/25.8.0.0 Safari/537.36" version="28.2.4" pages="2">
  <diagram name="Страница — 1" id="jrM_p-agxb9RcrLFFbzP">
    <mxGraphModel dx="1426" dy="796" grid="1" gridSize="10" guides="1" tooltips="1" connect="1" arrows="1" fold="1" page="1" pageScale="1" pageWidth="827" pageHeight="1169" background="none" math="0" shadow="0">
      <root>
        <mxCell id="0" />
        <mxCell id="1" parent="0" />
        <mxCell id="zH_n4sFcQTCAPx2PAFEm-2" value="Книги" style="rounded=0;whiteSpace=wrap;html=1;" parent="1" vertex="1">
          <mxGeometry x="740" y="280" width="120" height="60" as="geometry" />
        </mxCell>
        <mxCell id="zH_n4sFcQTCAPx2PAFEm-20" style="edgeStyle=orthogonalEdgeStyle;rounded=0;orthogonalLoop=1;jettySize=auto;html=1;exitX=1;exitY=0.5;exitDx=0;exitDy=0;exitPerimeter=0;entryX=0;entryY=0.5;entryDx=0;entryDy=0;endArrow=none;endFill=0;" parent="1" source="zH_n4sFcQTCAPx2PAFEm-4" target="zH_n4sFcQTCAPx2PAFEm-2" edge="1">
          <mxGeometry relative="1" as="geometry" />
        </mxCell>
        <mxCell id="zH_n4sFcQTCAPx2PAFEm-4" value="&lt;span id=&quot;docs-internal-guid-62c9c64f-7fff-3247-240e-ced8fd84ed45&quot;&gt;&lt;span style=&quot;font-size: 11pt; font-family: &amp;quot;Times New Roman&amp;quot;, serif; background-color: transparent; font-variant-numeric: normal; font-variant-east-asian: normal; font-variant-alternates: normal; font-variant-position: normal; font-variant-emoji: normal; vertical-align: baseline; white-space-collapse: preserve;&quot;&gt;число экземпляров&lt;/span&gt;&lt;/span&gt;" style="strokeWidth=1;html=1;shape=mxgraph.flowchart.start_1;whiteSpace=wrap;" parent="1" vertex="1">
          <mxGeometry x="590" y="630" width="100" height="60" as="geometry" />
        </mxCell>
        <mxCell id="zH_n4sFcQTCAPx2PAFEm-17" style="edgeStyle=orthogonalEdgeStyle;rounded=0;orthogonalLoop=1;jettySize=auto;html=1;exitX=1;exitY=0.5;exitDx=0;exitDy=0;exitPerimeter=0;entryX=0;entryY=0.5;entryDx=0;entryDy=0;endArrow=none;endFill=0;" parent="1" source="zH_n4sFcQTCAPx2PAFEm-5" target="zH_n4sFcQTCAPx2PAFEm-2" edge="1">
          <mxGeometry relative="1" as="geometry" />
        </mxCell>
        <mxCell id="zH_n4sFcQTCAPx2PAFEm-5" value="&lt;span id=&quot;docs-internal-guid-62c9c64f-7fff-3247-240e-ced8fd84ed45&quot;&gt;&lt;span style=&quot;font-size: 11pt; font-family: &amp;quot;Times New Roman&amp;quot;, serif; background-color: transparent; font-variant-numeric: normal; font-variant-east-asian: normal; font-variant-alternates: normal; font-variant-position: normal; font-variant-emoji: normal; vertical-align: baseline; white-space-collapse: preserve;&quot;&gt;цена&lt;/span&gt;&lt;/span&gt;" style="strokeWidth=1;html=1;shape=mxgraph.flowchart.start_1;whiteSpace=wrap;" parent="1" vertex="1">
          <mxGeometry x="590" y="490" width="100" height="60" as="geometry" />
        </mxCell>
        <mxCell id="zH_n4sFcQTCAPx2PAFEm-18" style="edgeStyle=orthogonalEdgeStyle;rounded=0;orthogonalLoop=1;jettySize=auto;html=1;exitX=1;exitY=0.5;exitDx=0;exitDy=0;exitPerimeter=0;entryX=0;entryY=0.5;entryDx=0;entryDy=0;endArrow=none;endFill=0;" parent="1" source="zH_n4sFcQTCAPx2PAFEm-6" target="zH_n4sFcQTCAPx2PAFEm-2" edge="1">
          <mxGeometry relative="1" as="geometry" />
        </mxCell>
        <mxCell id="zH_n4sFcQTCAPx2PAFEm-6" value="&lt;span id=&quot;docs-internal-guid-62c9c64f-7fff-3247-240e-ced8fd84ed45&quot;&gt;&lt;span style=&quot;font-size: 11pt; font-family: &amp;quot;Times New Roman&amp;quot;, serif; background-color: transparent; font-variant-numeric: normal; font-variant-east-asian: normal; font-variant-alternates: normal; font-variant-position: normal; font-variant-emoji: normal; vertical-align: baseline; white-space-collapse: preserve;&quot;&gt;год издания&lt;/span&gt;&lt;/span&gt;" style="strokeWidth=1;html=1;shape=mxgraph.flowchart.start_1;whiteSpace=wrap;" parent="1" vertex="1">
          <mxGeometry x="590" y="560" width="100" height="60" as="geometry" />
        </mxCell>
        <mxCell id="zH_n4sFcQTCAPx2PAFEm-16" style="edgeStyle=orthogonalEdgeStyle;rounded=0;orthogonalLoop=1;jettySize=auto;html=1;endArrow=none;endFill=0;exitX=1;exitY=0.5;exitDx=0;exitDy=0;entryX=0;entryY=0.25;entryDx=0;entryDy=0;" parent="1" source="zH_n4sFcQTCAPx2PAFEm-70" target="zH_n4sFcQTCAPx2PAFEm-2" edge="1">
          <mxGeometry relative="1" as="geometry">
            <mxPoint x="530" y="310" as="sourcePoint" />
            <mxPoint x="690" y="300" as="targetPoint" />
          </mxGeometry>
        </mxCell>
        <mxCell id="zH_n4sFcQTCAPx2PAFEm-14" style="edgeStyle=orthogonalEdgeStyle;rounded=0;orthogonalLoop=1;jettySize=auto;html=1;exitX=0;exitY=0.5;exitDx=0;exitDy=0;entryX=1;entryY=0.5;entryDx=0;entryDy=0;endArrow=none;endFill=0;" parent="1" source="zH_n4sFcQTCAPx2PAFEm-59" target="zH_n4sFcQTCAPx2PAFEm-2" edge="1">
          <mxGeometry relative="1" as="geometry">
            <mxPoint x="630" y="450" as="sourcePoint" />
          </mxGeometry>
        </mxCell>
        <mxCell id="zH_n4sFcQTCAPx2PAFEm-15" style="edgeStyle=orthogonalEdgeStyle;rounded=0;orthogonalLoop=1;jettySize=auto;html=1;exitX=1;exitY=0.5;exitDx=0;exitDy=0;exitPerimeter=0;entryX=0;entryY=0.5;entryDx=0;entryDy=0;endArrow=none;endFill=0;" parent="1" source="zH_n4sFcQTCAPx2PAFEm-9" target="zH_n4sFcQTCAPx2PAFEm-2" edge="1">
          <mxGeometry relative="1" as="geometry" />
        </mxCell>
        <mxCell id="zH_n4sFcQTCAPx2PAFEm-9" value="&lt;span id=&quot;docs-internal-guid-62c9c64f-7fff-3247-240e-ced8fd84ed45&quot;&gt;&lt;span style=&quot;font-size: 11pt; font-family: &amp;quot;Times New Roman&amp;quot;, serif; background-color: transparent; font-variant-numeric: normal; font-variant-east-asian: normal; font-variant-alternates: normal; font-variant-position: normal; font-variant-emoji: normal; vertical-align: baseline; white-space-collapse: preserve;&quot;&gt; название&lt;/span&gt;&lt;/span&gt;" style="strokeWidth=1;html=1;shape=mxgraph.flowchart.start_1;whiteSpace=wrap;" parent="1" vertex="1">
          <mxGeometry x="590" y="420" width="100" height="60" as="geometry" />
        </mxCell>
        <mxCell id="zH_n4sFcQTCAPx2PAFEm-12" style="edgeStyle=orthogonalEdgeStyle;rounded=0;orthogonalLoop=1;jettySize=auto;html=1;exitX=1;exitY=0.5;exitDx=0;exitDy=0;exitPerimeter=0;entryX=0;entryY=0.5;entryDx=0;entryDy=0;shape=filledEdge;endArrow=none;endFill=0;" parent="1" source="zH_n4sFcQTCAPx2PAFEm-10" target="zH_n4sFcQTCAPx2PAFEm-2" edge="1">
          <mxGeometry relative="1" as="geometry" />
        </mxCell>
        <mxCell id="zH_n4sFcQTCAPx2PAFEm-10" value="&lt;font face=&quot;Times New Roman, serif&quot;&gt;&lt;span style=&quot;font-size: 14.6667px; white-space-collapse: preserve;&quot;&gt;ID&lt;/span&gt;&lt;/font&gt;" style="strokeWidth=1;html=1;shape=mxgraph.flowchart.start_1;whiteSpace=wrap;fontStyle=4" parent="1" vertex="1">
          <mxGeometry x="590" y="350" width="100" height="60" as="geometry" />
        </mxCell>
        <mxCell id="zH_n4sFcQTCAPx2PAFEm-21" value="Читатель" style="rounded=0;whiteSpace=wrap;html=1;" parent="1" vertex="1">
          <mxGeometry x="945" y="360" width="120" height="60" as="geometry" />
        </mxCell>
        <mxCell id="zH_n4sFcQTCAPx2PAFEm-31" style="edgeStyle=orthogonalEdgeStyle;rounded=0;orthogonalLoop=1;jettySize=auto;html=1;exitX=0;exitY=0.5;exitDx=0;exitDy=0;endArrow=none;endFill=0;entryX=1;entryY=0.5;entryDx=0;entryDy=0;" parent="1" source="zH_n4sFcQTCAPx2PAFEm-22" target="zH_n4sFcQTCAPx2PAFEm-21" edge="1">
          <mxGeometry relative="1" as="geometry" />
        </mxCell>
        <mxCell id="zH_n4sFcQTCAPx2PAFEm-22" value="ID" style="ellipse;whiteSpace=wrap;html=1;fontStyle=4" parent="1" vertex="1">
          <mxGeometry x="1125" y="360" width="100" height="60" as="geometry" />
        </mxCell>
        <mxCell id="zH_n4sFcQTCAPx2PAFEm-32" style="edgeStyle=orthogonalEdgeStyle;rounded=0;orthogonalLoop=1;jettySize=auto;html=1;exitX=0;exitY=0.5;exitDx=0;exitDy=0;endArrow=none;endFill=0;entryX=1;entryY=0.5;entryDx=0;entryDy=0;" parent="1" source="zH_n4sFcQTCAPx2PAFEm-23" target="zH_n4sFcQTCAPx2PAFEm-21" edge="1">
          <mxGeometry relative="1" as="geometry" />
        </mxCell>
        <mxCell id="zH_n4sFcQTCAPx2PAFEm-47" style="edgeStyle=orthogonalEdgeStyle;rounded=0;orthogonalLoop=1;jettySize=auto;html=1;exitX=1;exitY=0.5;exitDx=0;exitDy=0;entryX=0;entryY=0.5;entryDx=0;entryDy=0;endArrow=none;endFill=0;" parent="1" source="zH_n4sFcQTCAPx2PAFEm-23" target="zH_n4sFcQTCAPx2PAFEm-46" edge="1">
          <mxGeometry relative="1" as="geometry">
            <mxPoint x="1225" y="460" as="sourcePoint" />
          </mxGeometry>
        </mxCell>
        <mxCell id="zH_n4sFcQTCAPx2PAFEm-48" style="edgeStyle=orthogonalEdgeStyle;rounded=0;orthogonalLoop=1;jettySize=auto;html=1;exitX=1;exitY=0.5;exitDx=0;exitDy=0;entryX=0;entryY=0.5;entryDx=0;entryDy=0;endArrow=none;endFill=0;" parent="1" source="zH_n4sFcQTCAPx2PAFEm-23" target="zH_n4sFcQTCAPx2PAFEm-45" edge="1">
          <mxGeometry relative="1" as="geometry">
            <mxPoint x="1225" y="460" as="sourcePoint" />
          </mxGeometry>
        </mxCell>
        <mxCell id="zH_n4sFcQTCAPx2PAFEm-49" style="edgeStyle=orthogonalEdgeStyle;rounded=0;orthogonalLoop=1;jettySize=auto;html=1;exitX=1;exitY=0.5;exitDx=0;exitDy=0;entryX=0;entryY=0.5;entryDx=0;entryDy=0;endArrow=none;endFill=0;dashed=1;" parent="1" source="zH_n4sFcQTCAPx2PAFEm-23" target="zH_n4sFcQTCAPx2PAFEm-44" edge="1">
          <mxGeometry relative="1" as="geometry">
            <mxPoint x="1225" y="460" as="sourcePoint" />
          </mxGeometry>
        </mxCell>
        <mxCell id="zH_n4sFcQTCAPx2PAFEm-23" value="&lt;span id=&quot;docs-internal-guid-3cda2545-7fff-e9de-cf7c-bde2f5490d6a&quot;&gt;&lt;span style=&quot;font-size: 11pt; font-family: &amp;quot;Times New Roman&amp;quot;, serif; background-color: transparent; font-variant-numeric: normal; font-variant-east-asian: normal; font-variant-alternates: normal; font-variant-position: normal; font-variant-emoji: normal; vertical-align: baseline; white-space-collapse: preserve;&quot;&gt;ФИО&lt;/span&gt;&lt;/span&gt;" style="ellipse;whiteSpace=wrap;html=1;" parent="1" vertex="1">
          <mxGeometry x="1125" y="430" width="100" height="60" as="geometry" />
        </mxCell>
        <mxCell id="zH_n4sFcQTCAPx2PAFEm-25" value="&lt;span id=&quot;docs-internal-guid-3cda2545-7fff-e9de-cf7c-bde2f5490d6a&quot;&gt;&lt;span style=&quot;font-size: 11pt; font-family: &amp;quot;Times New Roman&amp;quot;, serif; background-color: transparent; font-variant-numeric: normal; font-variant-east-asian: normal; font-variant-alternates: normal; font-variant-position: normal; font-variant-emoji: normal; vertical-align: baseline; white-space-collapse: preserve;&quot;&gt;даты выдачи&lt;/span&gt;&lt;/span&gt;" style="ellipse;whiteSpace=wrap;html=1;" parent="1" vertex="1">
          <mxGeometry x="820" y="450" width="110" height="60" as="geometry" />
        </mxCell>
        <mxCell id="zH_n4sFcQTCAPx2PAFEm-34" style="edgeStyle=orthogonalEdgeStyle;rounded=0;orthogonalLoop=1;jettySize=auto;html=1;exitX=1;exitY=0.5;exitDx=0;exitDy=0;endArrow=none;endFill=0;entryX=0;entryY=0.5;entryDx=0;entryDy=0;" parent="1" source="zH_n4sFcQTCAPx2PAFEm-27" target="zH_n4sFcQTCAPx2PAFEm-21" edge="1">
          <mxGeometry relative="1" as="geometry">
            <mxPoint x="1030" y="580" as="targetPoint" />
          </mxGeometry>
        </mxCell>
        <mxCell id="zH_n4sFcQTCAPx2PAFEm-35" style="edgeStyle=orthogonalEdgeStyle;rounded=0;orthogonalLoop=1;jettySize=auto;html=1;exitX=0.5;exitY=0;exitDx=0;exitDy=0;entryX=0.5;entryY=1;entryDx=0;entryDy=0;endArrow=none;endFill=0;" parent="1" source="zH_n4sFcQTCAPx2PAFEm-27" target="zH_n4sFcQTCAPx2PAFEm-2" edge="1">
          <mxGeometry relative="1" as="geometry" />
        </mxCell>
        <mxCell id="rXl6pRxURgErb4Ip6PWa-3" style="edgeStyle=orthogonalEdgeStyle;rounded=0;orthogonalLoop=1;jettySize=auto;html=1;exitX=0.5;exitY=1;exitDx=0;exitDy=0;entryX=0;entryY=0.5;entryDx=0;entryDy=0;endArrow=none;endFill=0;" parent="1" source="zH_n4sFcQTCAPx2PAFEm-27" target="rXl6pRxURgErb4Ip6PWa-1" edge="1">
          <mxGeometry relative="1" as="geometry" />
        </mxCell>
        <mxCell id="zH_n4sFcQTCAPx2PAFEm-27" value="Выдача книги" style="rhombus;whiteSpace=wrap;html=1;" parent="1" vertex="1">
          <mxGeometry x="735" y="365" width="130" height="80" as="geometry" />
        </mxCell>
        <mxCell id="zH_n4sFcQTCAPx2PAFEm-30" style="edgeStyle=orthogonalEdgeStyle;rounded=0;orthogonalLoop=1;jettySize=auto;html=1;exitX=0;exitY=0.5;exitDx=0;exitDy=0;endArrow=none;endFill=0;" parent="1" source="zH_n4sFcQTCAPx2PAFEm-28" target="zH_n4sFcQTCAPx2PAFEm-27" edge="1">
          <mxGeometry relative="1" as="geometry" />
        </mxCell>
        <mxCell id="zH_n4sFcQTCAPx2PAFEm-28" value="&lt;font face=&quot;Times New Roman, serif&quot;&gt;&lt;span style=&quot;font-size: 14.6667px; white-space-collapse: preserve;&quot;&gt;дата предполагаемой сдачи&lt;/span&gt;&lt;/font&gt;" style="ellipse;whiteSpace=wrap;html=1;" parent="1" vertex="1">
          <mxGeometry x="820" y="520" width="110" height="60" as="geometry" />
        </mxCell>
        <mxCell id="zH_n4sFcQTCAPx2PAFEm-29" style="edgeStyle=orthogonalEdgeStyle;rounded=0;orthogonalLoop=1;jettySize=auto;html=1;entryX=0;entryY=0.5;entryDx=0;entryDy=0;endArrow=none;endFill=0;exitX=0.5;exitY=1;exitDx=0;exitDy=0;" parent="1" source="zH_n4sFcQTCAPx2PAFEm-27" target="zH_n4sFcQTCAPx2PAFEm-25" edge="1">
          <mxGeometry relative="1" as="geometry" />
        </mxCell>
        <mxCell id="zH_n4sFcQTCAPx2PAFEm-37" value="M" style="text;html=1;align=center;verticalAlign=middle;whiteSpace=wrap;rounded=0;" parent="1" vertex="1">
          <mxGeometry x="900" y="390" width="60" height="30" as="geometry" />
        </mxCell>
        <mxCell id="zH_n4sFcQTCAPx2PAFEm-38" value="M" style="text;html=1;align=center;verticalAlign=middle;whiteSpace=wrap;rounded=0;" parent="1" vertex="1">
          <mxGeometry x="790" y="340" width="60" height="30" as="geometry" />
        </mxCell>
        <mxCell id="zH_n4sFcQTCAPx2PAFEm-40" style="edgeStyle=orthogonalEdgeStyle;rounded=0;orthogonalLoop=1;jettySize=auto;html=1;exitX=0;exitY=0.5;exitDx=0;exitDy=0;entryX=1;entryY=0.5;entryDx=0;entryDy=0;endArrow=none;endFill=0;dashed=1;" parent="1" source="zH_n4sFcQTCAPx2PAFEm-39" target="zH_n4sFcQTCAPx2PAFEm-21" edge="1">
          <mxGeometry relative="1" as="geometry" />
        </mxCell>
        <mxCell id="zH_n4sFcQTCAPx2PAFEm-39" value="&lt;font face=&quot;Times New Roman, serif&quot;&gt;&lt;span style=&quot;font-size: 14.6667px; white-space-collapse: preserve;&quot;&gt;задолженность&lt;/span&gt;&lt;/font&gt;" style="ellipse;whiteSpace=wrap;html=1;dashed=1;" parent="1" vertex="1">
          <mxGeometry x="1125" y="500" width="100" height="60" as="geometry" />
        </mxCell>
        <mxCell id="zH_n4sFcQTCAPx2PAFEm-42" style="edgeStyle=orthogonalEdgeStyle;rounded=0;orthogonalLoop=1;jettySize=auto;html=1;exitX=0;exitY=0.5;exitDx=0;exitDy=0;entryX=0.5;entryY=1;entryDx=0;entryDy=0;endArrow=none;endFill=0;dashed=1;" parent="1" source="zH_n4sFcQTCAPx2PAFEm-41" target="zH_n4sFcQTCAPx2PAFEm-27" edge="1">
          <mxGeometry relative="1" as="geometry" />
        </mxCell>
        <mxCell id="zH_n4sFcQTCAPx2PAFEm-41" value="&lt;font face=&quot;Times New Roman, serif&quot;&gt;&lt;span style=&quot;font-size: 14.6667px; white-space-collapse: preserve;&quot;&gt;штраф&lt;/span&gt;&lt;/font&gt;" style="ellipse;whiteSpace=wrap;html=1;dashed=1;" parent="1" vertex="1">
          <mxGeometry x="820" y="660" width="110" height="60" as="geometry" />
        </mxCell>
        <mxCell id="zH_n4sFcQTCAPx2PAFEm-44" value="&lt;span id=&quot;docs-internal-guid-3cda2545-7fff-e9de-cf7c-bde2f5490d6a&quot;&gt;&lt;span style=&quot;font-size: 11pt; font-family: &amp;quot;Times New Roman&amp;quot;, serif; background-color: transparent; font-variant-numeric: normal; font-variant-east-asian: normal; font-variant-alternates: normal; font-variant-position: normal; font-variant-emoji: normal; vertical-align: baseline; white-space-collapse: preserve;&quot;&gt;отчество&lt;/span&gt;&lt;/span&gt;" style="ellipse;whiteSpace=wrap;html=1;dashed=1;" parent="1" vertex="1">
          <mxGeometry x="1265" y="500" width="100" height="60" as="geometry" />
        </mxCell>
        <mxCell id="zH_n4sFcQTCAPx2PAFEm-45" value="&lt;span id=&quot;docs-internal-guid-3cda2545-7fff-e9de-cf7c-bde2f5490d6a&quot;&gt;&lt;span style=&quot;font-size: 11pt; font-family: &amp;quot;Times New Roman&amp;quot;, serif; background-color: transparent; font-variant-numeric: normal; font-variant-east-asian: normal; font-variant-alternates: normal; font-variant-position: normal; font-variant-emoji: normal; vertical-align: baseline; white-space-collapse: preserve;&quot;&gt;фамилия&lt;/span&gt;&lt;/span&gt;" style="ellipse;whiteSpace=wrap;html=1;" parent="1" vertex="1">
          <mxGeometry x="1265" y="360" width="100" height="60" as="geometry" />
        </mxCell>
        <mxCell id="zH_n4sFcQTCAPx2PAFEm-46" value="&lt;span id=&quot;docs-internal-guid-3cda2545-7fff-e9de-cf7c-bde2f5490d6a&quot;&gt;&lt;span style=&quot;font-size: 11pt; font-family: &amp;quot;Times New Roman&amp;quot;, serif; background-color: transparent; font-variant-numeric: normal; font-variant-east-asian: normal; font-variant-alternates: normal; font-variant-position: normal; font-variant-emoji: normal; vertical-align: baseline; white-space-collapse: preserve;&quot;&gt;имя&lt;/span&gt;&lt;/span&gt;" style="ellipse;whiteSpace=wrap;html=1;" parent="1" vertex="1">
          <mxGeometry x="1265" y="430" width="100" height="60" as="geometry" />
        </mxCell>
        <mxCell id="zH_n4sFcQTCAPx2PAFEm-50" value="Авторы" style="rounded=0;whiteSpace=wrap;html=1;" parent="1" vertex="1">
          <mxGeometry x="935" y="150" width="120" height="60" as="geometry" />
        </mxCell>
        <mxCell id="zH_n4sFcQTCAPx2PAFEm-51" style="edgeStyle=orthogonalEdgeStyle;rounded=0;orthogonalLoop=1;jettySize=auto;html=1;exitX=1;exitY=0.5;exitDx=0;exitDy=0;entryX=0;entryY=0.5;entryDx=0;entryDy=0;endArrow=none;endFill=0;dashed=1;" parent="1" source="zH_n4sFcQTCAPx2PAFEm-54" target="zH_n4sFcQTCAPx2PAFEm-57" edge="1">
          <mxGeometry relative="1" as="geometry" />
        </mxCell>
        <mxCell id="zH_n4sFcQTCAPx2PAFEm-52" style="edgeStyle=orthogonalEdgeStyle;rounded=0;orthogonalLoop=1;jettySize=auto;html=1;exitX=1;exitY=0.5;exitDx=0;exitDy=0;entryX=0;entryY=0.5;entryDx=0;entryDy=0;endArrow=none;endFill=0;dashed=1;" parent="1" source="zH_n4sFcQTCAPx2PAFEm-54" target="zH_n4sFcQTCAPx2PAFEm-56" edge="1">
          <mxGeometry relative="1" as="geometry" />
        </mxCell>
        <mxCell id="zH_n4sFcQTCAPx2PAFEm-53" style="edgeStyle=orthogonalEdgeStyle;rounded=0;orthogonalLoop=1;jettySize=auto;html=1;exitX=1;exitY=0.5;exitDx=0;exitDy=0;entryX=0;entryY=0.5;entryDx=0;entryDy=0;endArrow=none;endFill=0;dashed=1;" parent="1" source="zH_n4sFcQTCAPx2PAFEm-54" target="zH_n4sFcQTCAPx2PAFEm-55" edge="1">
          <mxGeometry relative="1" as="geometry" />
        </mxCell>
        <mxCell id="zH_n4sFcQTCAPx2PAFEm-58" style="edgeStyle=orthogonalEdgeStyle;rounded=0;orthogonalLoop=1;jettySize=auto;html=1;exitX=0;exitY=0.5;exitDx=0;exitDy=0;entryX=1;entryY=0.5;entryDx=0;entryDy=0;endArrow=none;endFill=0;dashed=1;" parent="1" source="zH_n4sFcQTCAPx2PAFEm-54" target="zH_n4sFcQTCAPx2PAFEm-50" edge="1">
          <mxGeometry relative="1" as="geometry" />
        </mxCell>
        <mxCell id="zH_n4sFcQTCAPx2PAFEm-54" value="&lt;span id=&quot;docs-internal-guid-3cda2545-7fff-e9de-cf7c-bde2f5490d6a&quot;&gt;&lt;span style=&quot;font-size: 11pt; font-family: &amp;quot;Times New Roman&amp;quot;, serif; background-color: transparent; font-variant-numeric: normal; font-variant-east-asian: normal; font-variant-alternates: normal; font-variant-position: normal; font-variant-emoji: normal; vertical-align: baseline; white-space-collapse: preserve;&quot;&gt;ФИО&lt;/span&gt;&lt;/span&gt;" style="ellipse;whiteSpace=wrap;html=1;dashed=1;" parent="1" vertex="1">
          <mxGeometry x="1095" y="190" width="100" height="60" as="geometry" />
        </mxCell>
        <mxCell id="zH_n4sFcQTCAPx2PAFEm-55" value="&lt;span id=&quot;docs-internal-guid-3cda2545-7fff-e9de-cf7c-bde2f5490d6a&quot;&gt;&lt;span style=&quot;font-size: 11pt; font-family: &amp;quot;Times New Roman&amp;quot;, serif; background-color: transparent; font-variant-numeric: normal; font-variant-east-asian: normal; font-variant-alternates: normal; font-variant-position: normal; font-variant-emoji: normal; vertical-align: baseline; white-space-collapse: preserve;&quot;&gt;отчество&lt;/span&gt;&lt;/span&gt;" style="ellipse;whiteSpace=wrap;html=1;dashed=1;" parent="1" vertex="1">
          <mxGeometry x="1235" y="260" width="100" height="60" as="geometry" />
        </mxCell>
        <mxCell id="zH_n4sFcQTCAPx2PAFEm-56" value="&lt;span id=&quot;docs-internal-guid-3cda2545-7fff-e9de-cf7c-bde2f5490d6a&quot;&gt;&lt;span style=&quot;font-size: 11pt; font-family: &amp;quot;Times New Roman&amp;quot;, serif; background-color: transparent; font-variant-numeric: normal; font-variant-east-asian: normal; font-variant-alternates: normal; font-variant-position: normal; font-variant-emoji: normal; vertical-align: baseline; white-space-collapse: preserve;&quot;&gt;фамилия&lt;/span&gt;&lt;/span&gt;" style="ellipse;whiteSpace=wrap;html=1;dashed=1;" parent="1" vertex="1">
          <mxGeometry x="1235" y="120" width="100" height="60" as="geometry" />
        </mxCell>
        <mxCell id="zH_n4sFcQTCAPx2PAFEm-57" value="&lt;span id=&quot;docs-internal-guid-3cda2545-7fff-e9de-cf7c-bde2f5490d6a&quot;&gt;&lt;span style=&quot;font-size: 11pt; font-family: &amp;quot;Times New Roman&amp;quot;, serif; background-color: transparent; font-variant-numeric: normal; font-variant-east-asian: normal; font-variant-alternates: normal; font-variant-position: normal; font-variant-emoji: normal; vertical-align: baseline; white-space-collapse: preserve;&quot;&gt;имя&lt;/span&gt;&lt;/span&gt;" style="ellipse;whiteSpace=wrap;html=1;dashed=1;" parent="1" vertex="1">
          <mxGeometry x="1235" y="190" width="100" height="60" as="geometry" />
        </mxCell>
        <mxCell id="zH_n4sFcQTCAPx2PAFEm-60" style="edgeStyle=orthogonalEdgeStyle;rounded=0;orthogonalLoop=1;jettySize=auto;html=1;exitX=0.5;exitY=0;exitDx=0;exitDy=0;entryX=0.5;entryY=1;entryDx=0;entryDy=0;endArrow=none;endFill=0;" parent="1" source="zH_n4sFcQTCAPx2PAFEm-59" target="zH_n4sFcQTCAPx2PAFEm-50" edge="1">
          <mxGeometry relative="1" as="geometry" />
        </mxCell>
        <mxCell id="zH_n4sFcQTCAPx2PAFEm-59" value="&lt;span style=&quot;font-family: &amp;quot;Times New Roman&amp;quot;, serif; font-size: 14.6667px; white-space-collapse: preserve;&quot;&gt;Список авторов&lt;/span&gt;" style="rhombus;whiteSpace=wrap;html=1;" parent="1" vertex="1">
          <mxGeometry x="930" y="270" width="130" height="80" as="geometry" />
        </mxCell>
        <mxCell id="zH_n4sFcQTCAPx2PAFEm-61" value="M" style="text;html=1;align=center;verticalAlign=middle;whiteSpace=wrap;rounded=0;" parent="1" vertex="1">
          <mxGeometry x="950" y="210" width="60" height="30" as="geometry" />
        </mxCell>
        <mxCell id="zH_n4sFcQTCAPx2PAFEm-66" style="edgeStyle=orthogonalEdgeStyle;rounded=0;orthogonalLoop=1;jettySize=auto;html=1;exitX=0;exitY=0.5;exitDx=0;exitDy=0;entryX=1;entryY=0.5;entryDx=0;entryDy=0;endArrow=none;endFill=0;" parent="1" source="zH_n4sFcQTCAPx2PAFEm-63" target="zH_n4sFcQTCAPx2PAFEm-50" edge="1">
          <mxGeometry relative="1" as="geometry" />
        </mxCell>
        <mxCell id="zH_n4sFcQTCAPx2PAFEm-63" value="ID" style="ellipse;whiteSpace=wrap;html=1;fontStyle=4" parent="1" vertex="1">
          <mxGeometry x="1095" y="120" width="100" height="60" as="geometry" />
        </mxCell>
        <mxCell id="zH_n4sFcQTCAPx2PAFEm-65" style="edgeStyle=orthogonalEdgeStyle;rounded=0;orthogonalLoop=1;jettySize=auto;html=1;exitX=0;exitY=0.5;exitDx=0;exitDy=0;entryX=1;entryY=0.5;entryDx=0;entryDy=0;endArrow=none;endFill=0;" parent="1" source="zH_n4sFcQTCAPx2PAFEm-64" target="zH_n4sFcQTCAPx2PAFEm-50" edge="1">
          <mxGeometry relative="1" as="geometry" />
        </mxCell>
        <mxCell id="zH_n4sFcQTCAPx2PAFEm-64" value="псевдоним" style="ellipse;whiteSpace=wrap;html=1;" parent="1" vertex="1">
          <mxGeometry x="1095" y="260" width="100" height="60" as="geometry" />
        </mxCell>
        <mxCell id="zH_n4sFcQTCAPx2PAFEm-67" value="Издательства" style="rounded=0;whiteSpace=wrap;html=1;" parent="1" vertex="1">
          <mxGeometry x="445" y="390" width="120" height="60" as="geometry" />
        </mxCell>
        <mxCell id="zH_n4sFcQTCAPx2PAFEm-72" style="edgeStyle=orthogonalEdgeStyle;rounded=0;orthogonalLoop=1;jettySize=auto;html=1;exitX=1;exitY=0.5;exitDx=0;exitDy=0;entryX=0;entryY=0.5;entryDx=0;entryDy=0;endArrow=none;endFill=0;" parent="1" source="zH_n4sFcQTCAPx2PAFEm-68" target="zH_n4sFcQTCAPx2PAFEm-67" edge="1">
          <mxGeometry relative="1" as="geometry" />
        </mxCell>
        <mxCell id="zH_n4sFcQTCAPx2PAFEm-68" value="ID" style="ellipse;whiteSpace=wrap;html=1;fontStyle=4" parent="1" vertex="1">
          <mxGeometry x="290" y="390" width="100" height="60" as="geometry" />
        </mxCell>
        <mxCell id="zH_n4sFcQTCAPx2PAFEm-73" style="edgeStyle=orthogonalEdgeStyle;rounded=0;orthogonalLoop=1;jettySize=auto;html=1;exitX=1;exitY=0.5;exitDx=0;exitDy=0;entryX=0;entryY=0.5;entryDx=0;entryDy=0;endArrow=none;endFill=0;" parent="1" source="zH_n4sFcQTCAPx2PAFEm-69" target="zH_n4sFcQTCAPx2PAFEm-67" edge="1">
          <mxGeometry relative="1" as="geometry" />
        </mxCell>
        <mxCell id="zH_n4sFcQTCAPx2PAFEm-69" value="название" style="ellipse;whiteSpace=wrap;html=1;fontStyle=0" parent="1" vertex="1">
          <mxGeometry x="290" y="460" width="100" height="60" as="geometry" />
        </mxCell>
        <mxCell id="zH_n4sFcQTCAPx2PAFEm-71" style="edgeStyle=orthogonalEdgeStyle;rounded=0;orthogonalLoop=1;jettySize=auto;html=1;exitX=0.5;exitY=1;exitDx=0;exitDy=0;entryX=0.5;entryY=0;entryDx=0;entryDy=0;endArrow=none;endFill=0;" parent="1" source="zH_n4sFcQTCAPx2PAFEm-70" target="zH_n4sFcQTCAPx2PAFEm-67" edge="1">
          <mxGeometry relative="1" as="geometry" />
        </mxCell>
        <mxCell id="zH_n4sFcQTCAPx2PAFEm-70" value="&lt;span style=&quot;font-family: &amp;quot;Times New Roman&amp;quot;, serif; font-size: 14.6667px; white-space-collapse: preserve;&quot;&gt;Издательство книги&lt;/span&gt;" style="rhombus;whiteSpace=wrap;html=1;" parent="1" vertex="1">
          <mxGeometry x="430" y="255" width="150" height="80" as="geometry" />
        </mxCell>
        <mxCell id="zH_n4sFcQTCAPx2PAFEm-74" value="1" style="text;html=1;align=center;verticalAlign=middle;whiteSpace=wrap;rounded=0;" parent="1" vertex="1">
          <mxGeometry x="460" y="360" width="60" height="30" as="geometry" />
        </mxCell>
        <mxCell id="zH_n4sFcQTCAPx2PAFEm-75" value="M" style="text;html=1;align=center;verticalAlign=middle;whiteSpace=wrap;rounded=0;" parent="1" vertex="1">
          <mxGeometry x="690" y="270" width="60" height="30" as="geometry" />
        </mxCell>
        <mxCell id="zH_n4sFcQTCAPx2PAFEm-76" value="M" style="text;html=1;align=center;verticalAlign=middle;whiteSpace=wrap;rounded=0;" parent="1" vertex="1">
          <mxGeometry x="850" y="280" width="60" height="30" as="geometry" />
        </mxCell>
        <mxCell id="zH_n4sFcQTCAPx2PAFEm-80" style="edgeStyle=orthogonalEdgeStyle;rounded=0;orthogonalLoop=1;jettySize=auto;html=1;exitX=1;exitY=0.5;exitDx=0;exitDy=0;entryX=0;entryY=0.5;entryDx=0;entryDy=0;endArrow=none;endFill=0;" parent="1" source="zH_n4sFcQTCAPx2PAFEm-77" target="zH_n4sFcQTCAPx2PAFEm-78" edge="1">
          <mxGeometry relative="1" as="geometry" />
        </mxCell>
        <mxCell id="zH_n4sFcQTCAPx2PAFEm-81" style="edgeStyle=orthogonalEdgeStyle;rounded=0;orthogonalLoop=1;jettySize=auto;html=1;exitX=1;exitY=0.5;exitDx=0;exitDy=0;entryX=0;entryY=0.5;entryDx=0;entryDy=0;endArrow=none;endFill=0;" parent="1" source="zH_n4sFcQTCAPx2PAFEm-77" target="zH_n4sFcQTCAPx2PAFEm-79" edge="1">
          <mxGeometry relative="1" as="geometry" />
        </mxCell>
        <mxCell id="zH_n4sFcQTCAPx2PAFEm-77" value="Группа" style="rounded=0;whiteSpace=wrap;html=1;" parent="1" vertex="1">
          <mxGeometry x="1105" y="605" width="120" height="60" as="geometry" />
        </mxCell>
        <mxCell id="zH_n4sFcQTCAPx2PAFEm-78" value="ID" style="ellipse;whiteSpace=wrap;html=1;fontStyle=4" parent="1" vertex="1">
          <mxGeometry x="1265" y="570" width="100" height="60" as="geometry" />
        </mxCell>
        <mxCell id="zH_n4sFcQTCAPx2PAFEm-79" value="название" style="ellipse;whiteSpace=wrap;html=1;fontStyle=0" parent="1" vertex="1">
          <mxGeometry x="1265" y="640" width="100" height="60" as="geometry" />
        </mxCell>
        <mxCell id="zH_n4sFcQTCAPx2PAFEm-83" style="edgeStyle=orthogonalEdgeStyle;rounded=0;orthogonalLoop=1;jettySize=auto;html=1;exitX=0.5;exitY=0;exitDx=0;exitDy=0;entryX=0.5;entryY=1;entryDx=0;entryDy=0;endArrow=none;endFill=0;" parent="1" source="zH_n4sFcQTCAPx2PAFEm-82" target="zH_n4sFcQTCAPx2PAFEm-21" edge="1">
          <mxGeometry relative="1" as="geometry">
            <mxPoint x="1040" y="725" as="targetPoint" />
          </mxGeometry>
        </mxCell>
        <mxCell id="zH_n4sFcQTCAPx2PAFEm-84" style="edgeStyle=orthogonalEdgeStyle;rounded=0;orthogonalLoop=1;jettySize=auto;html=1;exitX=0.5;exitY=1;exitDx=0;exitDy=0;entryX=0;entryY=0.5;entryDx=0;entryDy=0;endArrow=none;endFill=0;" parent="1" source="zH_n4sFcQTCAPx2PAFEm-82" target="zH_n4sFcQTCAPx2PAFEm-77" edge="1">
          <mxGeometry relative="1" as="geometry" />
        </mxCell>
        <mxCell id="zH_n4sFcQTCAPx2PAFEm-82" value="&lt;span style=&quot;font-family: &amp;quot;Times New Roman&amp;quot;, serif; font-size: 14.6667px; white-space-collapse: preserve;&quot;&gt;Группа читателя&lt;/span&gt;" style="rhombus;whiteSpace=wrap;html=1;" parent="1" vertex="1">
          <mxGeometry x="940" y="480" width="130" height="80" as="geometry" />
        </mxCell>
        <mxCell id="zH_n4sFcQTCAPx2PAFEm-86" value="1" style="text;html=1;align=center;verticalAlign=middle;whiteSpace=wrap;rounded=0;" parent="1" vertex="1">
          <mxGeometry x="1055" y="605" width="60" height="30" as="geometry" />
        </mxCell>
        <mxCell id="zH_n4sFcQTCAPx2PAFEm-87" value="M" style="text;html=1;align=center;verticalAlign=middle;whiteSpace=wrap;rounded=0;" parent="1" vertex="1">
          <mxGeometry x="955" y="420" width="60" height="30" as="geometry" />
        </mxCell>
        <mxCell id="zH_n4sFcQTCAPx2PAFEm-89" style="edgeStyle=orthogonalEdgeStyle;rounded=0;orthogonalLoop=1;jettySize=auto;html=1;exitX=0;exitY=0.5;exitDx=0;exitDy=0;entryX=0.5;entryY=1;entryDx=0;entryDy=0;endArrow=none;endFill=0;dashed=1;" parent="1" source="zH_n4sFcQTCAPx2PAFEm-88" target="zH_n4sFcQTCAPx2PAFEm-27" edge="1">
          <mxGeometry relative="1" as="geometry">
            <mxPoint x="880" y="620" as="targetPoint" />
          </mxGeometry>
        </mxCell>
        <mxCell id="zH_n4sFcQTCAPx2PAFEm-88" value="&lt;font face=&quot;Times New Roman, serif&quot;&gt;&lt;span style=&quot;font-size: 14.6667px; white-space-collapse: preserve;&quot;&gt;дата фактической сдачи&lt;/span&gt;&lt;/font&gt;" style="ellipse;whiteSpace=wrap;html=1;dashed=1;" parent="1" vertex="1">
          <mxGeometry x="820" y="590" width="110" height="60" as="geometry" />
        </mxCell>
        <mxCell id="zH_n4sFcQTCAPx2PAFEm-96" style="edgeStyle=orthogonalEdgeStyle;rounded=0;orthogonalLoop=1;jettySize=auto;html=1;exitX=1;exitY=0.5;exitDx=0;exitDy=0;entryX=0;entryY=0.5;entryDx=0;entryDy=0;endArrow=none;endFill=0;" parent="1" source="zH_n4sFcQTCAPx2PAFEm-90" target="zH_n4sFcQTCAPx2PAFEm-95" edge="1">
          <mxGeometry relative="1" as="geometry" />
        </mxCell>
        <mxCell id="zH_n4sFcQTCAPx2PAFEm-90" value="Темы" style="rounded=0;whiteSpace=wrap;html=1;" parent="1" vertex="1">
          <mxGeometry x="565" y="180" width="120" height="60" as="geometry" />
        </mxCell>
        <mxCell id="zH_n4sFcQTCAPx2PAFEm-93" style="edgeStyle=orthogonalEdgeStyle;rounded=0;orthogonalLoop=1;jettySize=auto;html=1;exitX=1;exitY=0.5;exitDx=0;exitDy=0;entryX=0;entryY=0.5;entryDx=0;entryDy=0;endArrow=none;endFill=0;" parent="1" source="zH_n4sFcQTCAPx2PAFEm-91" target="zH_n4sFcQTCAPx2PAFEm-90" edge="1">
          <mxGeometry relative="1" as="geometry" />
        </mxCell>
        <mxCell id="zH_n4sFcQTCAPx2PAFEm-91" value="ID" style="ellipse;whiteSpace=wrap;html=1;fontStyle=4" parent="1" vertex="1">
          <mxGeometry x="415" y="120" width="100" height="60" as="geometry" />
        </mxCell>
        <mxCell id="zH_n4sFcQTCAPx2PAFEm-94" style="edgeStyle=orthogonalEdgeStyle;rounded=0;orthogonalLoop=1;jettySize=auto;html=1;exitX=1;exitY=0.5;exitDx=0;exitDy=0;entryX=0;entryY=0.5;entryDx=0;entryDy=0;endArrow=none;endFill=0;" parent="1" source="zH_n4sFcQTCAPx2PAFEm-92" target="zH_n4sFcQTCAPx2PAFEm-90" edge="1">
          <mxGeometry relative="1" as="geometry" />
        </mxCell>
        <mxCell id="zH_n4sFcQTCAPx2PAFEm-92" value="название" style="ellipse;whiteSpace=wrap;html=1;fontStyle=0" parent="1" vertex="1">
          <mxGeometry x="415" y="190" width="100" height="60" as="geometry" />
        </mxCell>
        <mxCell id="zH_n4sFcQTCAPx2PAFEm-97" style="edgeStyle=orthogonalEdgeStyle;rounded=0;orthogonalLoop=1;jettySize=auto;html=1;exitX=0.5;exitY=1;exitDx=0;exitDy=0;endArrow=none;endFill=0;entryX=0.5;entryY=0;entryDx=0;entryDy=0;" parent="1" source="zH_n4sFcQTCAPx2PAFEm-95" target="zH_n4sFcQTCAPx2PAFEm-2" edge="1">
          <mxGeometry relative="1" as="geometry">
            <mxPoint x="720" y="250" as="targetPoint" />
          </mxGeometry>
        </mxCell>
        <mxCell id="zH_n4sFcQTCAPx2PAFEm-95" value="&lt;span style=&quot;font-family: &amp;quot;Times New Roman&amp;quot;, serif; font-size: 14.6667px; white-space-collapse: preserve;&quot;&gt;Список тем&lt;/span&gt;" style="rhombus;whiteSpace=wrap;html=1;" parent="1" vertex="1">
          <mxGeometry x="735" y="170" width="130" height="80" as="geometry" />
        </mxCell>
        <mxCell id="zH_n4sFcQTCAPx2PAFEm-99" value="M" style="text;html=1;align=center;verticalAlign=middle;whiteSpace=wrap;rounded=0;" parent="1" vertex="1">
          <mxGeometry x="760" y="255" width="60" height="30" as="geometry" />
        </mxCell>
        <mxCell id="zH_n4sFcQTCAPx2PAFEm-100" value="м" style="text;html=1;align=center;verticalAlign=middle;whiteSpace=wrap;rounded=0;" parent="1" vertex="1">
          <mxGeometry x="675" y="210" width="60" height="30" as="geometry" />
        </mxCell>
        <mxCell id="zH_n4sFcQTCAPx2PAFEm-104" value="INT" style="text;html=1;align=center;verticalAlign=middle;whiteSpace=wrap;rounded=0;" parent="1" vertex="1">
          <mxGeometry x="435" y="150" width="60" height="30" as="geometry" />
        </mxCell>
        <mxCell id="zH_n4sFcQTCAPx2PAFEm-105" value="INT" style="text;html=1;align=center;verticalAlign=middle;whiteSpace=wrap;rounded=0;" parent="1" vertex="1">
          <mxGeometry x="310" y="420" width="60" height="30" as="geometry" />
        </mxCell>
        <mxCell id="zH_n4sFcQTCAPx2PAFEm-106" value="INT" style="text;html=1;align=center;verticalAlign=middle;whiteSpace=wrap;rounded=0;" parent="1" vertex="1">
          <mxGeometry x="610" y="380" width="60" height="30" as="geometry" />
        </mxCell>
        <mxCell id="zH_n4sFcQTCAPx2PAFEm-107" value="INT" style="text;html=1;align=center;verticalAlign=middle;whiteSpace=wrap;rounded=0;" parent="1" vertex="1">
          <mxGeometry x="1145" y="390" width="60" height="30" as="geometry" />
        </mxCell>
        <mxCell id="zH_n4sFcQTCAPx2PAFEm-108" value="INT" style="text;html=1;align=center;verticalAlign=middle;whiteSpace=wrap;rounded=0;" parent="1" vertex="1">
          <mxGeometry x="1115" y="150" width="60" height="30" as="geometry" />
        </mxCell>
        <mxCell id="zH_n4sFcQTCAPx2PAFEm-109" value="INT" style="text;html=1;align=center;verticalAlign=middle;whiteSpace=wrap;rounded=0;" parent="1" vertex="1">
          <mxGeometry x="610" y="520" width="60" height="30" as="geometry" />
        </mxCell>
        <mxCell id="zH_n4sFcQTCAPx2PAFEm-110" value="INT" style="text;html=1;align=center;verticalAlign=middle;whiteSpace=wrap;rounded=0;" parent="1" vertex="1">
          <mxGeometry x="610" y="670" width="60" height="30" as="geometry" />
        </mxCell>
        <mxCell id="zH_n4sFcQTCAPx2PAFEm-111" value="INT" style="text;html=1;align=center;verticalAlign=middle;whiteSpace=wrap;rounded=0;" parent="1" vertex="1">
          <mxGeometry x="845" y="690" width="60" height="30" as="geometry" />
        </mxCell>
        <mxCell id="zH_n4sFcQTCAPx2PAFEm-112" value="INT" style="text;html=1;align=center;verticalAlign=middle;whiteSpace=wrap;rounded=0;" parent="1" vertex="1">
          <mxGeometry x="1285" y="600" width="60" height="30" as="geometry" />
        </mxCell>
        <mxCell id="zH_n4sFcQTCAPx2PAFEm-113" value="INT" style="text;html=1;align=center;verticalAlign=middle;whiteSpace=wrap;rounded=0;" parent="1" vertex="1">
          <mxGeometry x="1145" y="530" width="60" height="30" as="geometry" />
        </mxCell>
        <mxCell id="zH_n4sFcQTCAPx2PAFEm-114" value="STR" style="text;html=1;align=center;verticalAlign=middle;whiteSpace=wrap;rounded=0;" parent="1" vertex="1">
          <mxGeometry x="310" y="490" width="60" height="30" as="geometry" />
        </mxCell>
        <mxCell id="zH_n4sFcQTCAPx2PAFEm-115" value="STR" style="text;html=1;align=center;verticalAlign=middle;whiteSpace=wrap;rounded=0;" parent="1" vertex="1">
          <mxGeometry x="435" y="220" width="60" height="30" as="geometry" />
        </mxCell>
        <mxCell id="zH_n4sFcQTCAPx2PAFEm-116" value="STR" style="text;html=1;align=center;verticalAlign=middle;whiteSpace=wrap;rounded=0;" parent="1" vertex="1">
          <mxGeometry x="1115" y="220" width="60" height="30" as="geometry" />
        </mxCell>
        <mxCell id="zH_n4sFcQTCAPx2PAFEm-117" value="STR" style="text;html=1;align=center;verticalAlign=middle;whiteSpace=wrap;rounded=0;" parent="1" vertex="1">
          <mxGeometry x="1255" y="220" width="60" height="30" as="geometry" />
        </mxCell>
        <mxCell id="zH_n4sFcQTCAPx2PAFEm-118" value="STR" style="text;html=1;align=center;verticalAlign=middle;whiteSpace=wrap;rounded=0;" parent="1" vertex="1">
          <mxGeometry x="1255" y="150" width="60" height="30" as="geometry" />
        </mxCell>
        <mxCell id="zH_n4sFcQTCAPx2PAFEm-119" value="STR" style="text;html=1;align=center;verticalAlign=middle;whiteSpace=wrap;rounded=0;" parent="1" vertex="1">
          <mxGeometry x="1255" y="290" width="60" height="30" as="geometry" />
        </mxCell>
        <mxCell id="zH_n4sFcQTCAPx2PAFEm-120" value="STR" style="text;html=1;align=center;verticalAlign=middle;whiteSpace=wrap;rounded=0;" parent="1" vertex="1">
          <mxGeometry x="1115" y="290" width="60" height="30" as="geometry" />
        </mxCell>
        <mxCell id="zH_n4sFcQTCAPx2PAFEm-121" value="STR" style="text;html=1;align=center;verticalAlign=middle;whiteSpace=wrap;rounded=0;" parent="1" vertex="1">
          <mxGeometry x="1145" y="460" width="60" height="30" as="geometry" />
        </mxCell>
        <mxCell id="zH_n4sFcQTCAPx2PAFEm-122" value="STR" style="text;html=1;align=center;verticalAlign=middle;whiteSpace=wrap;rounded=0;" parent="1" vertex="1">
          <mxGeometry x="1285" y="460" width="60" height="30" as="geometry" />
        </mxCell>
        <mxCell id="zH_n4sFcQTCAPx2PAFEm-123" value="STR" style="text;html=1;align=center;verticalAlign=middle;whiteSpace=wrap;rounded=0;" parent="1" vertex="1">
          <mxGeometry x="1285" y="390" width="60" height="30" as="geometry" />
        </mxCell>
        <mxCell id="zH_n4sFcQTCAPx2PAFEm-124" value="STR" style="text;html=1;align=center;verticalAlign=middle;whiteSpace=wrap;rounded=0;" parent="1" vertex="1">
          <mxGeometry x="1285" y="530" width="60" height="30" as="geometry" />
        </mxCell>
        <mxCell id="zH_n4sFcQTCAPx2PAFEm-125" value="STR" style="text;html=1;align=center;verticalAlign=middle;whiteSpace=wrap;rounded=0;" parent="1" vertex="1">
          <mxGeometry x="1285" y="670" width="60" height="30" as="geometry" />
        </mxCell>
        <mxCell id="zH_n4sFcQTCAPx2PAFEm-126" value="STR" style="text;html=1;align=center;verticalAlign=middle;whiteSpace=wrap;rounded=0;" parent="1" vertex="1">
          <mxGeometry x="610" y="450" width="60" height="30" as="geometry" />
        </mxCell>
        <mxCell id="zH_n4sFcQTCAPx2PAFEm-127" value="DATE" style="text;html=1;align=center;verticalAlign=middle;whiteSpace=wrap;rounded=0;" parent="1" vertex="1">
          <mxGeometry x="610" y="590" width="60" height="30" as="geometry" />
        </mxCell>
        <mxCell id="zH_n4sFcQTCAPx2PAFEm-128" value="DATE" style="text;html=1;align=center;verticalAlign=middle;whiteSpace=wrap;rounded=0;" parent="1" vertex="1">
          <mxGeometry x="920" y="535" width="60" height="30" as="geometry" />
        </mxCell>
        <mxCell id="zH_n4sFcQTCAPx2PAFEm-129" value="DATE" style="text;html=1;align=center;verticalAlign=middle;whiteSpace=wrap;rounded=0;" parent="1" vertex="1">
          <mxGeometry x="920" y="605" width="60" height="30" as="geometry" />
        </mxCell>
        <mxCell id="zH_n4sFcQTCAPx2PAFEm-130" value="DATE" style="text;html=1;align=center;verticalAlign=middle;whiteSpace=wrap;rounded=0;" parent="1" vertex="1">
          <mxGeometry x="845" y="480" width="60" height="30" as="geometry" />
        </mxCell>
        <mxCell id="rXl6pRxURgErb4Ip6PWa-1" value="&lt;font face=&quot;Times New Roman, serif&quot;&gt;&lt;span style=&quot;font-size: 14.6667px; white-space-collapse: preserve;&quot;&gt;количество&lt;/span&gt;&lt;/font&gt;" style="ellipse;whiteSpace=wrap;html=1;" parent="1" vertex="1">
          <mxGeometry x="820" y="730" width="110" height="60" as="geometry" />
        </mxCell>
        <mxCell id="rXl6pRxURgErb4Ip6PWa-2" value="INT" style="text;html=1;align=center;verticalAlign=middle;whiteSpace=wrap;rounded=0;" parent="1" vertex="1">
          <mxGeometry x="845" y="760" width="60" height="30" as="geometry" />
        </mxCell>
      </root>
    </mxGraphModel>
  </diagram>
  <diagram id="qWjHBbxB7efm7JMPagJz" name="Страница — 2">
    <mxGraphModel dx="1426" dy="396" grid="1" gridSize="10" guides="1" tooltips="1" connect="1" arrows="1" fold="1" page="0" pageScale="1" pageWidth="827" pageHeight="1169" math="0" shadow="0">
      <root>
        <mxCell id="0" />
        <mxCell id="1" parent="0" />
        <mxCell id="VTbY_tMoaN_cMkA6dE7Y-1" value="Книги" style="swimlane;fontStyle=0;childLayout=stackLayout;horizontal=1;startSize=30;horizontalStack=0;resizeParent=1;resizeParentMax=0;resizeLast=0;collapsible=1;marginBottom=0;whiteSpace=wrap;html=1;" parent="1" vertex="1">
          <mxGeometry x="615" y="490" width="140" height="210" as="geometry" />
        </mxCell>
        <mxCell id="VTbY_tMoaN_cMkA6dE7Y-2" value="ID PK" style="text;strokeColor=none;fillColor=none;align=left;verticalAlign=middle;spacingLeft=4;spacingRight=4;overflow=hidden;points=[[0,0.5],[1,0.5]];portConstraint=eastwest;rotatable=0;whiteSpace=wrap;html=1;" parent="VTbY_tMoaN_cMkA6dE7Y-1" vertex="1">
          <mxGeometry y="30" width="140" height="30" as="geometry" />
        </mxCell>
        <mxCell id="VTbY_tMoaN_cMkA6dE7Y-3" value="Название" style="text;strokeColor=none;fillColor=none;align=left;verticalAlign=middle;spacingLeft=4;spacingRight=4;overflow=hidden;points=[[0,0.5],[1,0.5]];portConstraint=eastwest;rotatable=0;whiteSpace=wrap;html=1;" parent="VTbY_tMoaN_cMkA6dE7Y-1" vertex="1">
          <mxGeometry y="60" width="140" height="30" as="geometry" />
        </mxCell>
        <mxCell id="VTbY_tMoaN_cMkA6dE7Y-4" value="Цена" style="text;strokeColor=none;fillColor=none;align=left;verticalAlign=middle;spacingLeft=4;spacingRight=4;overflow=hidden;points=[[0,0.5],[1,0.5]];portConstraint=eastwest;rotatable=0;whiteSpace=wrap;html=1;" parent="VTbY_tMoaN_cMkA6dE7Y-1" vertex="1">
          <mxGeometry y="90" width="140" height="30" as="geometry" />
        </mxCell>
        <mxCell id="CwEKuooS-Iuc6s5B27IH-116" value="Год издания" style="text;strokeColor=none;fillColor=none;align=left;verticalAlign=middle;spacingLeft=4;spacingRight=4;overflow=hidden;points=[[0,0.5],[1,0.5]];portConstraint=eastwest;rotatable=0;whiteSpace=wrap;html=1;" parent="VTbY_tMoaN_cMkA6dE7Y-1" vertex="1">
          <mxGeometry y="120" width="140" height="30" as="geometry" />
        </mxCell>
        <mxCell id="CwEKuooS-Iuc6s5B27IH-117" value="Число экземпляров" style="text;strokeColor=none;fillColor=none;align=left;verticalAlign=middle;spacingLeft=4;spacingRight=4;overflow=hidden;points=[[0,0.5],[1,0.5]];portConstraint=eastwest;rotatable=0;whiteSpace=wrap;html=1;" parent="VTbY_tMoaN_cMkA6dE7Y-1" vertex="1">
          <mxGeometry y="150" width="140" height="30" as="geometry" />
        </mxCell>
        <mxCell id="CwEKuooS-Iuc6s5B27IH-160" value="ID издательства&amp;nbsp;FK" style="text;strokeColor=none;fillColor=none;align=left;verticalAlign=middle;spacingLeft=4;spacingRight=4;overflow=hidden;points=[[0,0.5],[1,0.5]];portConstraint=eastwest;rotatable=0;whiteSpace=wrap;html=1;" parent="VTbY_tMoaN_cMkA6dE7Y-1" vertex="1">
          <mxGeometry y="180" width="140" height="30" as="geometry" />
        </mxCell>
        <mxCell id="CwEKuooS-Iuc6s5B27IH-118" value="Темы" style="swimlane;fontStyle=0;childLayout=stackLayout;horizontal=1;startSize=30;horizontalStack=0;resizeParent=1;resizeParentMax=0;resizeLast=0;collapsible=1;marginBottom=0;whiteSpace=wrap;html=1;" parent="1" vertex="1">
          <mxGeometry x="380" y="480" width="140" height="90" as="geometry" />
        </mxCell>
        <mxCell id="CwEKuooS-Iuc6s5B27IH-122" value="ID&amp;nbsp;PK" style="text;strokeColor=none;fillColor=none;align=left;verticalAlign=middle;spacingLeft=4;spacingRight=4;overflow=hidden;points=[[0,0.5],[1,0.5]];portConstraint=eastwest;rotatable=0;whiteSpace=wrap;html=1;" parent="CwEKuooS-Iuc6s5B27IH-118" vertex="1">
          <mxGeometry y="30" width="140" height="30" as="geometry" />
        </mxCell>
        <mxCell id="CwEKuooS-Iuc6s5B27IH-123" value="Название" style="text;strokeColor=none;fillColor=none;align=left;verticalAlign=middle;spacingLeft=4;spacingRight=4;overflow=hidden;points=[[0,0.5],[1,0.5]];portConstraint=eastwest;rotatable=0;whiteSpace=wrap;html=1;" parent="CwEKuooS-Iuc6s5B27IH-118" vertex="1">
          <mxGeometry y="60" width="140" height="30" as="geometry" />
        </mxCell>
        <mxCell id="CwEKuooS-Iuc6s5B27IH-124" value="Издательства" style="swimlane;fontStyle=0;childLayout=stackLayout;horizontal=1;startSize=30;horizontalStack=0;resizeParent=1;resizeParentMax=0;resizeLast=0;collapsible=1;marginBottom=0;whiteSpace=wrap;html=1;" parent="1" vertex="1">
          <mxGeometry x="380" y="730" width="140" height="90" as="geometry" />
        </mxCell>
        <mxCell id="CwEKuooS-Iuc6s5B27IH-125" value="ID&amp;nbsp;PK" style="text;strokeColor=none;fillColor=none;align=left;verticalAlign=middle;spacingLeft=4;spacingRight=4;overflow=hidden;points=[[0,0.5],[1,0.5]];portConstraint=eastwest;rotatable=0;whiteSpace=wrap;html=1;" parent="CwEKuooS-Iuc6s5B27IH-124" vertex="1">
          <mxGeometry y="30" width="140" height="30" as="geometry" />
        </mxCell>
        <mxCell id="CwEKuooS-Iuc6s5B27IH-126" value="Название" style="text;strokeColor=none;fillColor=none;align=left;verticalAlign=middle;spacingLeft=4;spacingRight=4;overflow=hidden;points=[[0,0.5],[1,0.5]];portConstraint=eastwest;rotatable=0;whiteSpace=wrap;html=1;" parent="CwEKuooS-Iuc6s5B27IH-124" vertex="1">
          <mxGeometry y="60" width="140" height="30" as="geometry" />
        </mxCell>
        <mxCell id="CwEKuooS-Iuc6s5B27IH-127" value="Авторы" style="swimlane;fontStyle=0;childLayout=stackLayout;horizontal=1;startSize=30;horizontalStack=0;resizeParent=1;resizeParentMax=0;resizeLast=0;collapsible=1;marginBottom=0;whiteSpace=wrap;html=1;" parent="1" vertex="1">
          <mxGeometry x="1030" y="480" width="140" height="180" as="geometry" />
        </mxCell>
        <mxCell id="CwEKuooS-Iuc6s5B27IH-128" value="ID&amp;nbsp;PK" style="text;strokeColor=none;fillColor=none;align=left;verticalAlign=middle;spacingLeft=4;spacingRight=4;overflow=hidden;points=[[0,0.5],[1,0.5]];portConstraint=eastwest;rotatable=0;whiteSpace=wrap;html=1;" parent="CwEKuooS-Iuc6s5B27IH-127" vertex="1">
          <mxGeometry y="30" width="140" height="30" as="geometry" />
        </mxCell>
        <mxCell id="CwEKuooS-Iuc6s5B27IH-129" value="Псевдоним" style="text;strokeColor=none;fillColor=none;align=left;verticalAlign=middle;spacingLeft=4;spacingRight=4;overflow=hidden;points=[[0,0.5],[1,0.5]];portConstraint=eastwest;rotatable=0;whiteSpace=wrap;html=1;" parent="CwEKuooS-Iuc6s5B27IH-127" vertex="1">
          <mxGeometry y="60" width="140" height="30" as="geometry" />
        </mxCell>
        <mxCell id="CwEKuooS-Iuc6s5B27IH-130" value="Фамилия" style="text;strokeColor=none;fillColor=none;align=left;verticalAlign=middle;spacingLeft=4;spacingRight=4;overflow=hidden;points=[[0,0.5],[1,0.5]];portConstraint=eastwest;rotatable=0;whiteSpace=wrap;html=1;" parent="CwEKuooS-Iuc6s5B27IH-127" vertex="1">
          <mxGeometry y="90" width="140" height="30" as="geometry" />
        </mxCell>
        <mxCell id="CwEKuooS-Iuc6s5B27IH-131" value="Имя" style="text;strokeColor=none;fillColor=none;align=left;verticalAlign=middle;spacingLeft=4;spacingRight=4;overflow=hidden;points=[[0,0.5],[1,0.5]];portConstraint=eastwest;rotatable=0;whiteSpace=wrap;html=1;" parent="CwEKuooS-Iuc6s5B27IH-127" vertex="1">
          <mxGeometry y="120" width="140" height="30" as="geometry" />
        </mxCell>
        <mxCell id="CwEKuooS-Iuc6s5B27IH-132" value="Отчество" style="text;strokeColor=none;fillColor=none;align=left;verticalAlign=middle;spacingLeft=4;spacingRight=4;overflow=hidden;points=[[0,0.5],[1,0.5]];portConstraint=eastwest;rotatable=0;whiteSpace=wrap;html=1;" parent="CwEKuooS-Iuc6s5B27IH-127" vertex="1">
          <mxGeometry y="150" width="140" height="30" as="geometry" />
        </mxCell>
        <mxCell id="CwEKuooS-Iuc6s5B27IH-133" value="Читатель" style="swimlane;fontStyle=0;childLayout=stackLayout;horizontal=1;startSize=30;horizontalStack=0;resizeParent=1;resizeParentMax=0;resizeLast=0;collapsible=1;marginBottom=0;whiteSpace=wrap;html=1;" parent="1" vertex="1">
          <mxGeometry x="1004" y="670" width="140" height="210" as="geometry" />
        </mxCell>
        <mxCell id="CwEKuooS-Iuc6s5B27IH-134" value="ID&amp;nbsp;PK" style="text;strokeColor=none;fillColor=none;align=left;verticalAlign=middle;spacingLeft=4;spacingRight=4;overflow=hidden;points=[[0,0.5],[1,0.5]];portConstraint=eastwest;rotatable=0;whiteSpace=wrap;html=1;" parent="CwEKuooS-Iuc6s5B27IH-133" vertex="1">
          <mxGeometry y="30" width="140" height="30" as="geometry" />
        </mxCell>
        <mxCell id="CwEKuooS-Iuc6s5B27IH-136" value="Фамилия" style="text;strokeColor=none;fillColor=none;align=left;verticalAlign=middle;spacingLeft=4;spacingRight=4;overflow=hidden;points=[[0,0.5],[1,0.5]];portConstraint=eastwest;rotatable=0;whiteSpace=wrap;html=1;" parent="CwEKuooS-Iuc6s5B27IH-133" vertex="1">
          <mxGeometry y="60" width="140" height="30" as="geometry" />
        </mxCell>
        <mxCell id="CwEKuooS-Iuc6s5B27IH-137" value="Имя" style="text;strokeColor=none;fillColor=none;align=left;verticalAlign=middle;spacingLeft=4;spacingRight=4;overflow=hidden;points=[[0,0.5],[1,0.5]];portConstraint=eastwest;rotatable=0;whiteSpace=wrap;html=1;" parent="CwEKuooS-Iuc6s5B27IH-133" vertex="1">
          <mxGeometry y="90" width="140" height="30" as="geometry" />
        </mxCell>
        <mxCell id="CwEKuooS-Iuc6s5B27IH-138" value="Отчество" style="text;strokeColor=none;fillColor=none;align=left;verticalAlign=middle;spacingLeft=4;spacingRight=4;overflow=hidden;points=[[0,0.5],[1,0.5]];portConstraint=eastwest;rotatable=0;whiteSpace=wrap;html=1;" parent="CwEKuooS-Iuc6s5B27IH-133" vertex="1">
          <mxGeometry y="120" width="140" height="30" as="geometry" />
        </mxCell>
        <mxCell id="CwEKuooS-Iuc6s5B27IH-135" value="Задолженность" style="text;strokeColor=none;fillColor=none;align=left;verticalAlign=middle;spacingLeft=4;spacingRight=4;overflow=hidden;points=[[0,0.5],[1,0.5]];portConstraint=eastwest;rotatable=0;whiteSpace=wrap;html=1;" parent="CwEKuooS-Iuc6s5B27IH-133" vertex="1">
          <mxGeometry y="150" width="140" height="30" as="geometry" />
        </mxCell>
        <mxCell id="CwEKuooS-Iuc6s5B27IH-165" value="ID группы&amp;nbsp;FK" style="text;strokeColor=none;fillColor=none;align=left;verticalAlign=middle;spacingLeft=4;spacingRight=4;overflow=hidden;points=[[0,0.5],[1,0.5]];portConstraint=eastwest;rotatable=0;whiteSpace=wrap;html=1;" parent="CwEKuooS-Iuc6s5B27IH-133" vertex="1">
          <mxGeometry y="180" width="140" height="30" as="geometry" />
        </mxCell>
        <mxCell id="CwEKuooS-Iuc6s5B27IH-139" value="Группа" style="swimlane;fontStyle=0;childLayout=stackLayout;horizontal=1;startSize=30;horizontalStack=0;resizeParent=1;resizeParentMax=0;resizeLast=0;collapsible=1;marginBottom=0;whiteSpace=wrap;html=1;" parent="1" vertex="1">
          <mxGeometry x="1185" y="715" width="140" height="90" as="geometry" />
        </mxCell>
        <mxCell id="CwEKuooS-Iuc6s5B27IH-140" value="ID&amp;nbsp;PK" style="text;strokeColor=none;fillColor=none;align=left;verticalAlign=middle;spacingLeft=4;spacingRight=4;overflow=hidden;points=[[0,0.5],[1,0.5]];portConstraint=eastwest;rotatable=0;whiteSpace=wrap;html=1;" parent="CwEKuooS-Iuc6s5B27IH-139" vertex="1">
          <mxGeometry y="30" width="140" height="30" as="geometry" />
        </mxCell>
        <mxCell id="CwEKuooS-Iuc6s5B27IH-141" value="Название" style="text;strokeColor=none;fillColor=none;align=left;verticalAlign=middle;spacingLeft=4;spacingRight=4;overflow=hidden;points=[[0,0.5],[1,0.5]];portConstraint=eastwest;rotatable=0;whiteSpace=wrap;html=1;" parent="CwEKuooS-Iuc6s5B27IH-139" vertex="1">
          <mxGeometry y="60" width="140" height="30" as="geometry" />
        </mxCell>
        <mxCell id="CwEKuooS-Iuc6s5B27IH-142" value="Список авторов" style="swimlane;fontStyle=0;childLayout=stackLayout;horizontal=1;startSize=30;horizontalStack=0;resizeParent=1;resizeParentMax=0;resizeLast=0;collapsible=1;marginBottom=0;whiteSpace=wrap;html=1;" parent="1" vertex="1">
          <mxGeometry x="844" y="480" width="140" height="90" as="geometry" />
        </mxCell>
        <mxCell id="CwEKuooS-Iuc6s5B27IH-143" value="ID автора&amp;nbsp;FK" style="text;strokeColor=none;fillColor=none;align=left;verticalAlign=middle;spacingLeft=4;spacingRight=4;overflow=hidden;points=[[0,0.5],[1,0.5]];portConstraint=eastwest;rotatable=0;whiteSpace=wrap;html=1;" parent="CwEKuooS-Iuc6s5B27IH-142" vertex="1">
          <mxGeometry y="30" width="140" height="30" as="geometry" />
        </mxCell>
        <mxCell id="CwEKuooS-Iuc6s5B27IH-146" value="ID книги&amp;nbsp;FK" style="text;strokeColor=none;fillColor=none;align=left;verticalAlign=middle;spacingLeft=4;spacingRight=4;overflow=hidden;points=[[0,0.5],[1,0.5]];portConstraint=eastwest;rotatable=0;whiteSpace=wrap;html=1;" parent="CwEKuooS-Iuc6s5B27IH-142" vertex="1">
          <mxGeometry y="60" width="140" height="30" as="geometry" />
        </mxCell>
        <mxCell id="CwEKuooS-Iuc6s5B27IH-147" value="Выдача книг" style="swimlane;fontStyle=0;childLayout=stackLayout;horizontal=1;startSize=30;horizontalStack=0;resizeParent=1;resizeParentMax=0;resizeLast=0;collapsible=1;marginBottom=0;whiteSpace=wrap;html=1;" parent="1" vertex="1">
          <mxGeometry x="815" y="640" width="140" height="240" as="geometry" />
        </mxCell>
        <mxCell id="CwEKuooS-Iuc6s5B27IH-148" value="ID читателя&amp;nbsp;FK" style="text;strokeColor=none;fillColor=none;align=left;verticalAlign=middle;spacingLeft=4;spacingRight=4;overflow=hidden;points=[[0,0.5],[1,0.5]];portConstraint=eastwest;rotatable=0;whiteSpace=wrap;html=1;" parent="CwEKuooS-Iuc6s5B27IH-147" vertex="1">
          <mxGeometry y="30" width="140" height="30" as="geometry" />
        </mxCell>
        <mxCell id="CwEKuooS-Iuc6s5B27IH-149" value="ID книги&amp;nbsp;FK" style="text;strokeColor=none;fillColor=none;align=left;verticalAlign=middle;spacingLeft=4;spacingRight=4;overflow=hidden;points=[[0,0.5],[1,0.5]];portConstraint=eastwest;rotatable=0;whiteSpace=wrap;html=1;" parent="CwEKuooS-Iuc6s5B27IH-147" vertex="1">
          <mxGeometry y="60" width="140" height="30" as="geometry" />
        </mxCell>
        <mxCell id="CwEKuooS-Iuc6s5B27IH-154" value="Количество" style="text;strokeColor=none;fillColor=none;align=left;verticalAlign=middle;spacingLeft=4;spacingRight=4;overflow=hidden;points=[[0,0.5],[1,0.5]];portConstraint=eastwest;rotatable=0;whiteSpace=wrap;html=1;" parent="CwEKuooS-Iuc6s5B27IH-147" vertex="1">
          <mxGeometry y="90" width="140" height="30" as="geometry" />
        </mxCell>
        <mxCell id="CwEKuooS-Iuc6s5B27IH-150" value="Дата выдачи" style="text;strokeColor=none;fillColor=none;align=left;verticalAlign=middle;spacingLeft=4;spacingRight=4;overflow=hidden;points=[[0,0.5],[1,0.5]];portConstraint=eastwest;rotatable=0;whiteSpace=wrap;html=1;" parent="CwEKuooS-Iuc6s5B27IH-147" vertex="1">
          <mxGeometry y="120" width="140" height="30" as="geometry" />
        </mxCell>
        <mxCell id="CwEKuooS-Iuc6s5B27IH-151" value="Дата предполагаемой сдачи" style="text;strokeColor=none;fillColor=none;align=left;verticalAlign=middle;spacingLeft=4;spacingRight=4;overflow=hidden;points=[[0,0.5],[1,0.5]];portConstraint=eastwest;rotatable=0;whiteSpace=wrap;html=1;" parent="CwEKuooS-Iuc6s5B27IH-147" vertex="1">
          <mxGeometry y="150" width="140" height="30" as="geometry" />
        </mxCell>
        <mxCell id="CwEKuooS-Iuc6s5B27IH-152" value="Дата фактической сдачи" style="text;strokeColor=none;fillColor=none;align=left;verticalAlign=middle;spacingLeft=4;spacingRight=4;overflow=hidden;points=[[0,0.5],[1,0.5]];portConstraint=eastwest;rotatable=0;whiteSpace=wrap;html=1;" parent="CwEKuooS-Iuc6s5B27IH-147" vertex="1">
          <mxGeometry y="180" width="140" height="30" as="geometry" />
        </mxCell>
        <mxCell id="CwEKuooS-Iuc6s5B27IH-153" value="Штраф" style="text;strokeColor=none;fillColor=none;align=left;verticalAlign=middle;spacingLeft=4;spacingRight=4;overflow=hidden;points=[[0,0.5],[1,0.5]];portConstraint=eastwest;rotatable=0;whiteSpace=wrap;html=1;" parent="CwEKuooS-Iuc6s5B27IH-147" vertex="1">
          <mxGeometry y="210" width="140" height="30" as="geometry" />
        </mxCell>
        <mxCell id="CwEKuooS-Iuc6s5B27IH-166" style="edgeStyle=orthogonalEdgeStyle;rounded=0;orthogonalLoop=1;jettySize=auto;html=1;exitX=0;exitY=0.5;exitDx=0;exitDy=0;entryX=1;entryY=0.5;entryDx=0;entryDy=0;endArrow=none;endFill=0;" parent="1" source="CwEKuooS-Iuc6s5B27IH-140" target="CwEKuooS-Iuc6s5B27IH-165" edge="1">
          <mxGeometry relative="1" as="geometry" />
        </mxCell>
        <mxCell id="CwEKuooS-Iuc6s5B27IH-167" style="edgeStyle=orthogonalEdgeStyle;rounded=0;orthogonalLoop=1;jettySize=auto;html=1;exitX=0;exitY=0.5;exitDx=0;exitDy=0;entryX=1;entryY=0.5;entryDx=0;entryDy=0;strokeColor=default;align=center;verticalAlign=middle;fontFamily=Helvetica;fontSize=11;fontColor=default;labelBackgroundColor=default;endArrow=none;endFill=0;" parent="1" source="CwEKuooS-Iuc6s5B27IH-134" target="CwEKuooS-Iuc6s5B27IH-148" edge="1">
          <mxGeometry relative="1" as="geometry" />
        </mxCell>
        <mxCell id="CwEKuooS-Iuc6s5B27IH-168" style="edgeStyle=orthogonalEdgeStyle;rounded=0;orthogonalLoop=1;jettySize=auto;html=1;exitX=0;exitY=0.5;exitDx=0;exitDy=0;entryX=1;entryY=0.5;entryDx=0;entryDy=0;strokeColor=default;align=center;verticalAlign=middle;fontFamily=Helvetica;fontSize=11;fontColor=default;labelBackgroundColor=default;endArrow=none;endFill=0;" parent="1" source="CwEKuooS-Iuc6s5B27IH-149" target="VTbY_tMoaN_cMkA6dE7Y-2" edge="1">
          <mxGeometry relative="1" as="geometry" />
        </mxCell>
        <mxCell id="CwEKuooS-Iuc6s5B27IH-169" style="edgeStyle=orthogonalEdgeStyle;rounded=0;orthogonalLoop=1;jettySize=auto;html=1;exitX=1;exitY=0.5;exitDx=0;exitDy=0;entryX=0;entryY=0.5;entryDx=0;entryDy=0;strokeColor=default;align=center;verticalAlign=middle;fontFamily=Helvetica;fontSize=11;fontColor=default;labelBackgroundColor=default;endArrow=none;endFill=0;" parent="1" source="CwEKuooS-Iuc6s5B27IH-143" target="CwEKuooS-Iuc6s5B27IH-128" edge="1">
          <mxGeometry relative="1" as="geometry" />
        </mxCell>
        <mxCell id="CwEKuooS-Iuc6s5B27IH-170" style="edgeStyle=orthogonalEdgeStyle;rounded=0;orthogonalLoop=1;jettySize=auto;html=1;exitX=0;exitY=0.5;exitDx=0;exitDy=0;entryX=1;entryY=0.5;entryDx=0;entryDy=0;strokeColor=default;align=center;verticalAlign=middle;fontFamily=Helvetica;fontSize=11;fontColor=default;labelBackgroundColor=default;endArrow=none;endFill=0;" parent="1" source="CwEKuooS-Iuc6s5B27IH-146" target="VTbY_tMoaN_cMkA6dE7Y-2" edge="1">
          <mxGeometry relative="1" as="geometry" />
        </mxCell>
        <mxCell id="CwEKuooS-Iuc6s5B27IH-171" style="edgeStyle=orthogonalEdgeStyle;rounded=0;orthogonalLoop=1;jettySize=auto;html=1;exitX=0;exitY=0.5;exitDx=0;exitDy=0;entryX=1;entryY=0.5;entryDx=0;entryDy=0;strokeColor=default;align=center;verticalAlign=middle;fontFamily=Helvetica;fontSize=11;fontColor=default;labelBackgroundColor=default;endArrow=none;endFill=0;" parent="1" source="CwEKuooS-Iuc6s5B27IH-160" target="CwEKuooS-Iuc6s5B27IH-125" edge="1">
          <mxGeometry relative="1" as="geometry">
            <Array as="points">
              <mxPoint x="580" y="685" />
              <mxPoint x="580" y="775" />
            </Array>
          </mxGeometry>
        </mxCell>
        <mxCell id="y8NAAJ9-ywHrcm69Nxco-1" value="Список тем" style="swimlane;fontStyle=0;childLayout=stackLayout;horizontal=1;startSize=30;horizontalStack=0;resizeParent=1;resizeParentMax=0;resizeLast=0;collapsible=1;marginBottom=0;whiteSpace=wrap;html=1;" parent="1" vertex="1">
          <mxGeometry x="380" y="610" width="140" height="90" as="geometry" />
        </mxCell>
        <mxCell id="y8NAAJ9-ywHrcm69Nxco-2" value="ID темы FK" style="text;strokeColor=none;fillColor=none;align=left;verticalAlign=middle;spacingLeft=4;spacingRight=4;overflow=hidden;points=[[0,0.5],[1,0.5]];portConstraint=eastwest;rotatable=0;whiteSpace=wrap;html=1;" parent="y8NAAJ9-ywHrcm69Nxco-1" vertex="1">
          <mxGeometry y="30" width="140" height="30" as="geometry" />
        </mxCell>
        <mxCell id="y8NAAJ9-ywHrcm69Nxco-3" value="ID книги&amp;nbsp;FK" style="text;strokeColor=none;fillColor=none;align=left;verticalAlign=middle;spacingLeft=4;spacingRight=4;overflow=hidden;points=[[0,0.5],[1,0.5]];portConstraint=eastwest;rotatable=0;whiteSpace=wrap;html=1;" parent="y8NAAJ9-ywHrcm69Nxco-1" vertex="1">
          <mxGeometry y="60" width="140" height="30" as="geometry" />
        </mxCell>
        <mxCell id="y8NAAJ9-ywHrcm69Nxco-4" style="edgeStyle=orthogonalEdgeStyle;rounded=0;orthogonalLoop=1;jettySize=auto;html=1;exitX=0;exitY=0.5;exitDx=0;exitDy=0;entryX=1;entryY=0.5;entryDx=0;entryDy=0;strokeColor=default;align=center;verticalAlign=middle;fontFamily=Helvetica;fontSize=11;fontColor=default;labelBackgroundColor=default;endArrow=none;endFill=0;" parent="1" source="VTbY_tMoaN_cMkA6dE7Y-2" target="y8NAAJ9-ywHrcm69Nxco-3" edge="1">
          <mxGeometry relative="1" as="geometry" />
        </mxCell>
        <mxCell id="y8NAAJ9-ywHrcm69Nxco-5" style="edgeStyle=orthogonalEdgeStyle;rounded=0;orthogonalLoop=1;jettySize=auto;html=1;exitX=1;exitY=0.5;exitDx=0;exitDy=0;entryX=1;entryY=0.5;entryDx=0;entryDy=0;strokeColor=default;align=center;verticalAlign=middle;fontFamily=Helvetica;fontSize=11;fontColor=default;labelBackgroundColor=default;endArrow=none;endFill=0;" parent="1" source="CwEKuooS-Iuc6s5B27IH-122" target="y8NAAJ9-ywHrcm69Nxco-2" edge="1">
          <mxGeometry relative="1" as="geometry" />
        </mxCell>
      </root>
    </mxGraphModel>
  </diagram>
</mxfile>
